<svg xmlns="http://www.w3.org/2000/svg" xmlns:xlink="http://www.w3.org/1999/xlink" width="1000" zoomAndPan="magnify" viewBox="0 0 750 749.999995" height="1000" preserveAspectRatio="xMidYMid meet" version="1.0"><defs><g/><clipPath id="7586f369a1"><path d="M 59 315.25 L 183.957031 315.25 L 183.957031 446.5 L 59 446.5 Z M 59 315.25 " clip-rule="nonzero"/></clipPath><clipPath id="f7fdb176d1"><path d="M 130.65625 376.398438 L 74.75 376.398438 C 72.582031 376.398438 71.011719 374.332031 71.597656 372.246094 L 86.949219 317.640625 C 87.34375 316.230469 88.632812 315.257812 90.097656 315.257812 L 146.003906 315.257812 C 148.171875 315.257812 149.742188 317.324219 149.15625 319.40625 L 133.808594 374.011719 C 133.410156 375.421875 132.125 376.398438 130.65625 376.398438 Z M 94.34375 417.617188 L 102.246094 389.5 C 102.832031 387.417969 101.265625 385.351562 99.097656 385.351562 L 70.359375 385.351562 C 68.890625 385.351562 67.601562 386.324219 67.207031 387.734375 L 59.304688 415.851562 C 58.71875 417.9375 60.285156 420.003906 62.453125 420.003906 L 91.191406 420.003906 C 92.660156 420.003906 93.949219 419.027344 94.34375 417.617188 Z M 108.886719 387.734375 L 93.539062 442.34375 C 92.953125 444.425781 94.523438 446.492188 96.691406 446.492188 L 152.597656 446.492188 C 154.0625 446.492188 155.351562 445.519531 155.746094 444.109375 L 171.09375 389.5 C 171.679688 387.417969 170.113281 385.351562 167.945312 385.351562 L 112.039062 385.351562 C 110.570312 385.351562 109.285156 386.324219 108.886719 387.734375 Z M 148.351562 344.132812 L 140.449219 372.246094 C 139.863281 374.332031 141.429688 376.398438 143.597656 376.398438 L 172.335938 376.398438 C 173.804688 376.398438 175.09375 375.421875 175.488281 374.011719 L 183.390625 345.898438 C 183.976562 343.8125 182.40625 341.746094 180.238281 341.746094 L 151.5 341.746094 C 150.035156 341.746094 148.746094 342.722656 148.351562 344.132812 Z M 148.351562 344.132812 " clip-rule="nonzero"/></clipPath><linearGradient x1="114.296458" gradientTransform="matrix(0.262909, 0, 0, 0.262473, 59.179995, 315.255938)" y1="-47.633932" x2="358.61089" gradientUnits="userSpaceOnUse" y2="547.607315" id="eae6cda132"><stop stop-opacity="1" stop-color="rgb(0%, 98.799133%, 65.899658%)" offset="0"/><stop stop-opacity="1" stop-color="rgb(0%, 98.799133%, 65.899658%)" offset="0.0625"/><stop stop-opacity="1" stop-color="rgb(0.0213623%, 98.773193%, 65.965271%)" offset="0.09375"/><stop stop-opacity="1" stop-color="rgb(0.100708%, 98.677063%, 66.210938%)" offset="0.101563"/><stop stop-opacity="1" stop-color="rgb(0.216675%, 98.536682%, 66.571045%)" offset="0.109375"/><stop stop-opacity="1" stop-color="rgb(0.332642%, 98.396301%, 66.929626%)" offset="0.117188"/><stop stop-opacity="1" stop-color="rgb(0.448608%, 98.25592%, 67.289734%)" offset="0.125"/><stop stop-opacity="1" stop-color="rgb(0.564575%, 98.117065%, 67.649841%)" offset="0.132812"/><stop stop-opacity="1" stop-color="rgb(0.679016%, 97.976685%, 68.008423%)" offset="0.140625"/><stop stop-opacity="1" stop-color="rgb(0.794983%, 97.836304%, 68.36853%)" offset="0.148438"/><stop stop-opacity="1" stop-color="rgb(0.91095%, 97.695923%, 68.727112%)" offset="0.15625"/><stop stop-opacity="1" stop-color="rgb(1.026917%, 97.555542%, 69.087219%)" offset="0.164063"/><stop stop-opacity="1" stop-color="rgb(1.142883%, 97.415161%, 69.445801%)" offset="0.171875"/><stop stop-opacity="1" stop-color="rgb(1.25885%, 97.27478%, 69.805908%)" offset="0.179688"/><stop stop-opacity="1" stop-color="rgb(1.374817%, 97.135925%, 70.16449%)" offset="0.1875"/><stop stop-opacity="1" stop-color="rgb(1.490784%, 96.995544%, 70.524597%)" offset="0.195312"/><stop stop-opacity="1" stop-color="rgb(1.60675%, 96.855164%, 70.883179%)" offset="0.203125"/><stop stop-opacity="1" stop-color="rgb(1.722717%, 96.714783%, 71.243286%)" offset="0.210938"/><stop stop-opacity="1" stop-color="rgb(1.838684%, 96.574402%, 71.603394%)" offset="0.21875"/><stop stop-opacity="1" stop-color="rgb(1.954651%, 96.434021%, 71.961975%)" offset="0.226563"/><stop stop-opacity="1" stop-color="rgb(2.070618%, 96.29364%, 72.322083%)" offset="0.234375"/><stop stop-opacity="1" stop-color="rgb(2.186584%, 96.153259%, 72.680664%)" offset="0.242188"/><stop stop-opacity="1" stop-color="rgb(2.302551%, 96.014404%, 73.040771%)" offset="0.25"/><stop stop-opacity="1" stop-color="rgb(2.418518%, 95.874023%, 73.399353%)" offset="0.257813"/><stop stop-opacity="1" stop-color="rgb(2.534485%, 95.733643%, 73.75946%)" offset="0.265625"/><stop stop-opacity="1" stop-color="rgb(2.650452%, 95.593262%, 74.118042%)" offset="0.273438"/><stop stop-opacity="1" stop-color="rgb(2.766418%, 95.452881%, 74.478149%)" offset="0.281112"/><stop stop-opacity="1" stop-color="rgb(2.824402%, 95.38269%, 74.658203%)" offset="0.28125"/><stop stop-opacity="1" stop-color="rgb(2.882385%, 95.3125%, 74.836731%)" offset="0.289062"/><stop stop-opacity="1" stop-color="rgb(2.998352%, 95.172119%, 75.196838%)" offset="0.296875"/><stop stop-opacity="1" stop-color="rgb(3.114319%, 95.031738%, 75.556946%)" offset="0.304688"/><stop stop-opacity="1" stop-color="rgb(3.230286%, 94.892883%, 75.915527%)" offset="0.3125"/><stop stop-opacity="1" stop-color="rgb(3.346252%, 94.752502%, 76.275635%)" offset="0.320313"/><stop stop-opacity="1" stop-color="rgb(3.462219%, 94.612122%, 76.634216%)" offset="0.328125"/><stop stop-opacity="1" stop-color="rgb(3.578186%, 94.471741%, 76.994324%)" offset="0.335938"/><stop stop-opacity="1" stop-color="rgb(3.694153%, 94.33136%, 77.352905%)" offset="0.34375"/><stop stop-opacity="1" stop-color="rgb(3.81012%, 94.190979%, 77.713013%)" offset="0.351562"/><stop stop-opacity="1" stop-color="rgb(3.926086%, 94.050598%, 78.071594%)" offset="0.359375"/><stop stop-opacity="1" stop-color="rgb(4.042053%, 93.911743%, 78.431702%)" offset="0.367188"/><stop stop-opacity="1" stop-color="rgb(4.15802%, 93.771362%, 78.790283%)" offset="0.375"/><stop stop-opacity="1" stop-color="rgb(4.273987%, 93.630981%, 79.150391%)" offset="0.382813"/><stop stop-opacity="1" stop-color="rgb(4.389954%, 93.490601%, 79.510498%)" offset="0.390625"/><stop stop-opacity="1" stop-color="rgb(4.50592%, 93.35022%, 79.86908%)" offset="0.398438"/><stop stop-opacity="1" stop-color="rgb(4.621887%, 93.209839%, 80.229187%)" offset="0.40625"/><stop stop-opacity="1" stop-color="rgb(4.737854%, 93.069458%, 80.587769%)" offset="0.414062"/><stop stop-opacity="1" stop-color="rgb(4.853821%, 92.929077%, 80.947876%)" offset="0.421875"/><stop stop-opacity="1" stop-color="rgb(4.969788%, 92.790222%, 81.306458%)" offset="0.429688"/><stop stop-opacity="1" stop-color="rgb(5.085754%, 92.649841%, 81.666565%)" offset="0.4375"/><stop stop-opacity="1" stop-color="rgb(5.201721%, 92.50946%, 82.025146%)" offset="0.445312"/><stop stop-opacity="1" stop-color="rgb(5.317688%, 92.36908%, 82.385254%)" offset="0.453125"/><stop stop-opacity="1" stop-color="rgb(5.433655%, 92.228699%, 82.743835%)" offset="0.460938"/><stop stop-opacity="1" stop-color="rgb(5.549622%, 92.088318%, 83.103943%)" offset="0.46875"/><stop stop-opacity="1" stop-color="rgb(5.665588%, 91.947937%, 83.46405%)" offset="0.476562"/><stop stop-opacity="1" stop-color="rgb(5.781555%, 91.807556%, 83.822632%)" offset="0.484375"/><stop stop-opacity="1" stop-color="rgb(5.897522%, 91.668701%, 84.182739%)" offset="0.492188"/><stop stop-opacity="1" stop-color="rgb(6.013489%, 91.52832%, 84.541321%)" offset="0.5"/><stop stop-opacity="1" stop-color="rgb(6.129456%, 91.387939%, 84.901428%)" offset="0.507812"/><stop stop-opacity="1" stop-color="rgb(6.245422%, 91.247559%, 85.26001%)" offset="0.515625"/><stop stop-opacity="1" stop-color="rgb(6.361389%, 91.107178%, 85.620117%)" offset="0.523437"/><stop stop-opacity="1" stop-color="rgb(6.477356%, 90.966797%, 85.978699%)" offset="0.53125"/><stop stop-opacity="1" stop-color="rgb(6.593323%, 90.826416%, 86.338806%)" offset="0.539062"/><stop stop-opacity="1" stop-color="rgb(6.70929%, 90.687561%, 86.697388%)" offset="0.546875"/><stop stop-opacity="1" stop-color="rgb(6.825256%, 90.54718%, 87.057495%)" offset="0.554688"/><stop stop-opacity="1" stop-color="rgb(6.941223%, 90.406799%, 87.417603%)" offset="0.5625"/><stop stop-opacity="1" stop-color="rgb(7.05719%, 90.266418%, 87.776184%)" offset="0.570312"/><stop stop-opacity="1" stop-color="rgb(7.171631%, 90.126038%, 88.136292%)" offset="0.578125"/><stop stop-opacity="1" stop-color="rgb(7.287598%, 89.985657%, 88.494873%)" offset="0.585938"/><stop stop-opacity="1" stop-color="rgb(7.403564%, 89.845276%, 88.85498%)" offset="0.59375"/><stop stop-opacity="1" stop-color="rgb(7.519531%, 89.704895%, 89.213562%)" offset="0.601562"/><stop stop-opacity="1" stop-color="rgb(7.635498%, 89.56604%, 89.573669%)" offset="0.609375"/><stop stop-opacity="1" stop-color="rgb(7.751465%, 89.425659%, 89.932251%)" offset="0.617188"/><stop stop-opacity="1" stop-color="rgb(7.867432%, 89.285278%, 90.292358%)" offset="0.625"/><stop stop-opacity="1" stop-color="rgb(7.983398%, 89.144897%, 90.65094%)" offset="0.632813"/><stop stop-opacity="1" stop-color="rgb(8.099365%, 89.004517%, 91.011047%)" offset="0.640625"/><stop stop-opacity="1" stop-color="rgb(8.215332%, 88.864136%, 91.371155%)" offset="0.648438"/><stop stop-opacity="1" stop-color="rgb(8.331299%, 88.723755%, 91.729736%)" offset="0.65625"/><stop stop-opacity="1" stop-color="rgb(8.447266%, 88.583374%, 92.089844%)" offset="0.664063"/><stop stop-opacity="1" stop-color="rgb(8.563232%, 88.444519%, 92.448425%)" offset="0.671875"/><stop stop-opacity="1" stop-color="rgb(8.679199%, 88.304138%, 92.808533%)" offset="0.679688"/><stop stop-opacity="1" stop-color="rgb(8.795166%, 88.163757%, 93.167114%)" offset="0.6875"/><stop stop-opacity="1" stop-color="rgb(8.911133%, 88.023376%, 93.527222%)" offset="0.695313"/><stop stop-opacity="1" stop-color="rgb(9.0271%, 87.882996%, 93.885803%)" offset="0.703125"/><stop stop-opacity="1" stop-color="rgb(9.143066%, 87.742615%, 94.245911%)" offset="0.710938"/><stop stop-opacity="1" stop-color="rgb(9.259033%, 87.602234%, 94.604492%)" offset="0.71875"/><stop stop-opacity="1" stop-color="rgb(9.375%, 87.463379%, 94.9646%)" offset="0.718888"/><stop stop-opacity="1" stop-color="rgb(9.432983%, 87.393188%, 95.144653%)" offset="0.726562"/><stop stop-opacity="1" stop-color="rgb(9.490967%, 87.322998%, 95.324707%)" offset="0.734375"/><stop stop-opacity="1" stop-color="rgb(9.606934%, 87.182617%, 95.683289%)" offset="0.742188"/><stop stop-opacity="1" stop-color="rgb(9.7229%, 87.042236%, 96.043396%)" offset="0.75"/><stop stop-opacity="1" stop-color="rgb(9.838867%, 86.901855%, 96.401978%)" offset="0.757812"/><stop stop-opacity="1" stop-color="rgb(9.954834%, 86.761475%, 96.762085%)" offset="0.765625"/><stop stop-opacity="1" stop-color="rgb(10.070801%, 86.621094%, 97.120667%)" offset="0.773438"/><stop stop-opacity="1" stop-color="rgb(10.186768%, 86.480713%, 97.480774%)" offset="0.78125"/><stop stop-opacity="1" stop-color="rgb(10.302734%, 86.341858%, 97.839355%)" offset="0.789063"/><stop stop-opacity="1" stop-color="rgb(10.418701%, 86.201477%, 98.199463%)" offset="0.796875"/><stop stop-opacity="1" stop-color="rgb(10.534668%, 86.061096%, 98.558044%)" offset="0.804688"/><stop stop-opacity="1" stop-color="rgb(10.650635%, 85.920715%, 98.918152%)" offset="0.8125"/><stop stop-opacity="1" stop-color="rgb(10.766602%, 85.780334%, 99.278259%)" offset="0.820312"/><stop stop-opacity="1" stop-color="rgb(10.882568%, 85.639954%, 99.636841%)" offset="0.828125"/><stop stop-opacity="1" stop-color="rgb(10.969543%, 85.534668%, 99.908447%)" offset="0.84375"/><stop stop-opacity="1" stop-color="rgb(10.998535%, 85.499573%, 100%)" offset="0.875"/><stop stop-opacity="1" stop-color="rgb(10.998535%, 85.499573%, 100%)" offset="1"/></linearGradient><clipPath id="55052e4c28"><path d="M 350.957031 336.804688 L 378.65625 336.804688 L 378.65625 364.5 L 350.957031 364.5 Z M 350.957031 336.804688 " clip-rule="nonzero"/></clipPath><clipPath id="cad0c465e3"><path d="M 364.804688 336.804688 C 357.15625 336.804688 350.957031 343.003906 350.957031 350.652344 C 350.957031 358.300781 357.15625 364.5 364.804688 364.5 C 372.453125 364.5 378.65625 358.300781 378.65625 350.652344 C 378.65625 343.003906 372.453125 336.804688 364.804688 336.804688 Z M 364.804688 336.804688 " clip-rule="nonzero"/></clipPath></defs><g clip-path="url(#7586f369a1)"><g clip-path="url(#f7fdb176d1)"><path fill="url(#eae6cda132)" d="M 58.71875 315.257812 L 58.71875 446.492188 L 183.957031 446.492188 L 183.957031 315.257812 Z M 58.71875 315.257812 " fill-rule="nonzero"/></g></g><g fill="#ffffff" fill-opacity="1"><g transform="translate(213.261357, 432.145043)"><g><path d="M 82.328125 0 L 64.5 0 L 58.046875 -19.78125 L 25.171875 -19.78125 L 18.71875 0 L 1.296875 0 L 30.921875 -85.796875 L 52.703125 -85.796875 Z M 40.78125 -67.90625 L 29.75 -34.03125 L 53.34375 -34.03125 L 42.25 -67.90625 Z M 40.78125 -67.90625 "/></g></g></g><g fill="#ffffff" fill-opacity="1"><g transform="translate(296.883829, 432.145043)"><g><path d="M 44.65625 -15.4375 L 48.890625 -3.40625 C 47.128906 -1.957031 44.914062 -0.820312 42.25 0 C 39.59375 0.820312 36.582031 1.234375 33.21875 1.234375 C 26.21875 1.234375 20.894531 -0.671875 17.25 -4.484375 C 13.613281 -8.304688 11.796875 -13.851562 11.796875 -21.125 L 11.796875 -51.875 L 1.9375 -51.875 L 1.9375 -64.78125 L 11.796875 -64.78125 L 11.796875 -77.40625 L 28.046875 -80.046875 L 28.046875 -64.78125 L 46.421875 -64.78125 L 46.421875 -51.875 L 28.046875 -51.875 L 28.046875 -22.296875 C 28.046875 -19.085938 28.710938 -16.75 30.046875 -15.28125 C 31.378906 -13.820312 33.316406 -13.09375 35.859375 -13.09375 C 38.753906 -13.09375 41.273438 -13.875 43.421875 -15.4375 Z M 44.65625 -15.4375 "/></g></g></g><g fill="#ffffff" fill-opacity="1"><g transform="translate(347.174677, 432.145043)"><g><path d="M 17.421875 -72.46875 C 14.492188 -72.46875 12.109375 -73.359375 10.265625 -75.140625 C 8.429688 -76.921875 7.515625 -79.222656 7.515625 -82.046875 C 7.515625 -84.816406 8.429688 -87.09375 10.265625 -88.875 C 12.109375 -90.65625 14.492188 -91.546875 17.421875 -91.546875 C 19.378906 -91.546875 21.117188 -91.132812 22.640625 -90.3125 C 24.171875 -89.488281 25.359375 -88.363281 26.203125 -86.9375 C 27.046875 -85.507812 27.46875 -83.878906 27.46875 -82.046875 C 27.46875 -80.203125 27.046875 -78.554688 26.203125 -77.109375 C 25.359375 -75.660156 24.171875 -74.523438 22.640625 -73.703125 C 21.117188 -72.878906 19.378906 -72.46875 17.421875 -72.46875 Z M 9.328125 0 L 9.328125 -64.734375 L 25.59375 -64.734375 L 25.59375 0 Z M 9.328125 0 "/></g></g></g><g fill="#00faa8" fill-opacity="1"><g transform="translate(382.039641, 432.145043)"><g><path d="M 11.15625 0 L 11.15625 -85.796875 L 47.765625 -85.796875 C 53.046875 -85.796875 57.515625 -84.960938 61.171875 -83.296875 C 64.835938 -81.640625 67.609375 -79.273438 69.484375 -76.203125 C 71.359375 -73.128906 72.296875 -69.5 72.296875 -65.3125 C 72.296875 -61.519531 71.375 -58.175781 69.53125 -55.28125 C 67.695312 -52.382812 65.0625 -50.054688 61.625 -48.296875 L 61.625 -47.0625 C 67.019531 -45.65625 71.179688 -43.09375 74.109375 -39.375 C 77.046875 -35.65625 78.515625 -31.097656 78.515625 -25.703125 C 78.515625 -17.484375 76.039062 -11.144531 71.09375 -6.6875 C 66.144531 -2.226562 58.800781 0 49.0625 0 Z M 44.25 -51.578125 C 52.15625 -51.578125 56.109375 -55.140625 56.109375 -62.265625 C 56.109375 -65.898438 55.128906 -68.609375 53.171875 -70.390625 C 51.210938 -72.171875 48.238281 -73.0625 44.25 -73.0625 L 28.109375 -73.0625 L 28.109375 -51.578125 Z M 47.359375 -13.4375 C 56.710938 -13.4375 61.390625 -17.679688 61.390625 -26.171875 C 61.390625 -34.703125 56.710938 -38.96875 47.359375 -38.96875 L 28.109375 -38.96875 L 28.109375 -13.4375 Z M 47.359375 -13.4375 "/></g></g></g><g fill="#00faa8" fill-opacity="1"><g transform="translate(465.955525, 432.145043)"><g><path d="M 25.234375 1.234375 C 21.085938 1.234375 17.488281 0.472656 14.4375 -1.046875 C 11.382812 -2.578125 9.035156 -4.816406 7.390625 -7.765625 C 5.742188 -10.722656 4.921875 -14.273438 4.921875 -18.421875 C 4.921875 -22.253906 5.742188 -25.472656 7.390625 -28.078125 C 9.035156 -30.679688 11.578125 -32.8125 15.015625 -34.46875 C 18.460938 -36.132812 22.960938 -37.421875 28.515625 -38.328125 C 32.390625 -38.953125 35.332031 -39.632812 37.34375 -40.375 C 39.363281 -41.113281 40.722656 -41.953125 41.421875 -42.890625 C 42.128906 -43.835938 42.484375 -45.035156 42.484375 -46.484375 C 42.484375 -48.554688 41.757812 -50.140625 40.3125 -51.234375 C 38.863281 -52.328125 36.457031 -52.875 33.09375 -52.875 C 29.5 -52.875 26.078125 -52.070312 22.828125 -50.46875 C 19.578125 -48.863281 16.757812 -46.75 14.375 -44.125 L 13.203125 -44.125 L 6.390625 -54.40625 C 9.679688 -58.039062 13.691406 -60.875 18.421875 -62.90625 C 23.160156 -64.945312 28.328125 -65.96875 33.921875 -65.96875 C 42.484375 -65.96875 48.679688 -64.144531 52.515625 -60.5 C 56.359375 -56.863281 58.28125 -51.703125 58.28125 -45.015625 L 58.28125 -16.90625 C 58.28125 -14.007812 59.550781 -12.5625 62.09375 -12.5625 C 63.070312 -12.5625 64.03125 -12.738281 64.96875 -13.09375 L 65.78125 -12.859375 L 66.953125 -1.53125 C 66.054688 -0.9375 64.804688 -0.453125 63.203125 -0.078125 C 61.597656 0.285156 59.835938 0.46875 57.921875 0.46875 C 54.046875 0.46875 51.019531 -0.269531 48.84375 -1.75 C 46.675781 -3.238281 45.125 -5.570312 44.1875 -8.75 L 42.953125 -8.859375 C 39.785156 -2.128906 33.878906 1.234375 25.234375 1.234375 Z M 30.40625 -10.921875 C 34.15625 -10.921875 37.15625 -12.179688 39.40625 -14.703125 C 41.65625 -17.222656 42.78125 -20.734375 42.78125 -25.234375 L 42.78125 -31.8125 L 41.671875 -32.046875 C 40.691406 -31.265625 39.410156 -30.609375 37.828125 -30.078125 C 36.242188 -29.546875 33.960938 -29.023438 30.984375 -28.515625 C 27.460938 -27.929688 24.925781 -26.925781 23.375 -25.5 C 21.832031 -24.070312 21.0625 -22.046875 21.0625 -19.421875 C 21.0625 -16.648438 21.882812 -14.539062 23.53125 -13.09375 C 25.175781 -11.644531 27.46875 -10.921875 30.40625 -10.921875 Z M 30.40625 -10.921875 "/></g></g></g><g fill="#00faa8" fill-opacity="1"><g transform="translate(534.203198, 432.145043)"><g><path d="M 9.328125 0 L 9.328125 -64.734375 L 24.9375 -64.734375 L 24.9375 -55.21875 L 26.171875 -54.921875 C 30.203125 -62.285156 36.738281 -65.96875 45.78125 -65.96875 C 53.25 -65.96875 58.734375 -63.929688 62.234375 -59.859375 C 65.734375 -55.785156 67.484375 -49.859375 67.484375 -42.078125 L 67.484375 0 L 51.234375 0 L 51.234375 -40.078125 C 51.234375 -44.378906 50.367188 -47.476562 48.640625 -49.375 C 46.921875 -51.28125 44.164062 -52.234375 40.375 -52.234375 C 35.71875 -52.234375 32.085938 -50.722656 29.484375 -47.703125 C 26.890625 -44.691406 25.59375 -39.960938 25.59375 -33.515625 L 25.59375 0 Z M 9.328125 0 "/></g></g></g><g fill="#00faa8" fill-opacity="1"><g transform="translate(610.020904, 432.145043)"><g><path d="M 9.328125 0 L 9.328125 -90.734375 L 25.59375 -90.734375 L 25.59375 -40.375 L 27.171875 -40.375 L 45.890625 -64.734375 L 62.375 -64.734375 L 62.375 -63.375 L 40.375 -34.96875 L 64.84375 -1.46875 L 64.84375 0 L 47.71875 0 L 27.171875 -27.28125 L 25.59375 -27.28125 L 25.59375 0 Z M 9.328125 0 "/></g></g></g><g clip-path="url(#55052e4c28)"><g clip-path="url(#cad0c465e3)"><path fill="#00faa8" d="M 350.957031 336.804688 L 378.65625 336.804688 L 378.65625 364.5 L 350.957031 364.5 Z M 350.957031 336.804688 " fill-opacity="1" fill-rule="nonzero"/></g></g></svg>